<svg width="204" height="28" viewBox="0 0 204 28" fill="none" xmlns="http://www.w3.org/2000/svg">
<g clip-path="url(#clip0_94_2241)">
<path d="M13.5018 11.3615C9.4642 13.0983 6.39321 17.1331 6.01162 22.1865H0C0.443706 13.8762 6.04083 7.00584 13.5018 5.01782V11.3615Z" fill="#6B6CFF"/>
<path d="M19.7155 5.01788L13.5018 5.01782L13.502 22.1864H19.7155V5.01788Z" fill="#6B6CFF"/>
<path d="M28 22.1865L28 11.2402L24.8753 8.12906L21.7865 4.99998L21.7865 22.1865L28 22.1865Z" fill="#6B6CFF"/>
<path d="M21.7865 11.2402V5.01794L28 11.2402H21.7865Z" fill="#59F892"/>
</g>
<path d="M203.997 15.088C203.997 15.472 203.973 15.872 203.925 16.288H194.637C194.701 17.12 194.965 17.76 195.429 18.208C195.909 18.64 196.493 18.856 197.181 18.856C198.205 18.856 198.917 18.424 199.317 17.56H203.685C203.461 18.44 203.053 19.232 202.461 19.936C201.885 20.64 201.157 21.192 200.277 21.592C199.397 21.992 198.413 22.192 197.325 22.192C196.013 22.192 194.845 21.912 193.821 21.352C192.797 20.792 191.997 19.992 191.421 18.952C190.845 17.912 190.557 16.696 190.557 15.304C190.557 13.912 190.837 12.696 191.397 11.656C191.973 10.616 192.773 9.81602 193.797 9.25602C194.821 8.69602 195.997 8.41602 197.325 8.41602C198.621 8.41602 199.773 8.68802 200.781 9.23202C201.789 9.77602 202.573 10.552 203.133 11.56C203.709 12.568 203.997 13.744 203.997 15.088ZM199.797 14.008C199.797 13.304 199.557 12.744 199.077 12.328C198.597 11.912 197.997 11.704 197.277 11.704C196.589 11.704 196.005 11.904 195.525 12.304C195.061 12.704 194.773 13.272 194.661 14.008H199.797Z" fill="#41464B"/>
<path d="M175.026 15.304C175.026 13.912 175.306 12.696 175.866 11.656C176.442 10.616 177.234 9.81602 178.242 9.25602C179.266 8.69602 180.434 8.41602 181.746 8.41602C183.426 8.41602 184.826 8.85602 185.946 9.73602C187.082 10.616 187.826 11.856 188.178 13.456H183.81C183.442 12.432 182.73 11.92 181.674 11.92C180.922 11.92 180.322 12.216 179.874 12.808C179.426 13.384 179.202 14.216 179.202 15.304C179.202 16.392 179.426 17.232 179.874 17.824C180.322 18.4 180.922 18.688 181.674 18.688C182.73 18.688 183.442 18.176 183.81 17.152H188.178C187.826 18.72 187.082 19.952 185.946 20.848C184.81 21.744 183.41 22.192 181.746 22.192C180.434 22.192 179.266 21.912 178.242 21.352C177.234 20.792 176.442 19.992 175.866 18.952C175.306 17.912 175.026 16.696 175.026 15.304Z" fill="#41464B"/>
<path d="M169.828 7.216C169.108 7.216 168.516 7.008 168.052 6.592C167.604 6.16 167.38 5.632 167.38 5.008C167.38 4.368 167.604 3.84 168.052 3.424C168.516 2.992 169.108 2.776 169.828 2.776C170.532 2.776 171.108 2.992 171.556 3.424C172.02 3.84 172.252 4.368 172.252 5.008C172.252 5.632 172.02 6.16 171.556 6.592C171.108 7.008 170.532 7.216 169.828 7.216ZM171.868 8.608V22H167.764V8.608H171.868Z" fill="#41464B"/>
<path d="M164.835 12.016H162.627V22H158.523V12.016H157.035V8.60802H158.523V8.22402C158.523 6.57602 158.995 5.32802 159.939 4.48002C160.883 3.61602 162.267 3.18402 164.091 3.18402C164.395 3.18402 164.619 3.19202 164.763 3.20802V6.68802C163.979 6.64002 163.427 6.75202 163.107 7.02402C162.787 7.29602 162.627 7.78402 162.627 8.48802V8.60802H164.835V12.016Z" fill="#41464B"/>
<path d="M155.187 12.016H152.979V22H148.875V12.016H147.387V8.60802H148.875V8.22402C148.875 6.57602 149.347 5.32802 150.291 4.48002C151.235 3.61602 152.619 3.18402 154.443 3.18402C154.747 3.18402 154.971 3.19202 155.115 3.20802V6.68802C154.331 6.64002 153.779 6.75202 153.459 7.02402C153.139 7.29602 152.979 7.78402 152.979 8.48802V8.60802H155.187V12.016Z" fill="#41464B"/>
<path d="M136.568 22.168C134.984 22.168 133.528 21.8 132.2 21.064C130.888 20.328 129.84 19.304 129.056 17.992C128.288 16.664 127.904 15.176 127.904 13.528C127.904 11.88 128.288 10.4 129.056 9.08799C129.84 7.77599 130.888 6.75199 132.2 6.01599C133.528 5.27999 134.984 4.91199 136.568 4.91199C138.152 4.91199 139.6 5.27999 140.912 6.01599C142.24 6.75199 143.28 7.77599 144.032 9.08799C144.8 10.4 145.184 11.88 145.184 13.528C145.184 15.176 144.8 16.664 144.032 17.992C143.264 19.304 142.224 20.328 140.912 21.064C139.6 21.8 138.152 22.168 136.568 22.168ZM136.568 18.424C137.912 18.424 138.984 17.976 139.784 17.08C140.6 16.184 141.008 15 141.008 13.528C141.008 12.04 140.6 10.856 139.784 9.97599C138.984 9.07999 137.912 8.63199 136.568 8.63199C135.208 8.63199 134.12 9.07199 133.304 9.95199C132.504 10.832 132.104 12.024 132.104 13.528C132.104 15.016 132.504 16.208 133.304 17.104C134.12 17.984 135.208 18.424 136.568 18.424Z" fill="#41464B"/>
<path d="M125.314 18.52V22H123.226C121.738 22 120.578 21.64 119.746 20.92C118.914 20.184 118.498 18.992 118.498 17.344V12.016H116.866V8.60799H118.498V5.34399H122.602V8.60799H125.29V12.016H122.602V17.392C122.602 17.792 122.698 18.08 122.89 18.256C123.082 18.432 123.402 18.52 123.85 18.52H125.314Z" fill="#41464B"/>
<path d="M99.7446 15.28C99.7446 13.904 100.001 12.696 100.513 11.656C101.041 10.616 101.753 9.81602 102.649 9.25602C103.545 8.69602 104.545 8.41602 105.649 8.41602C106.593 8.41602 107.417 8.60802 108.121 8.99202C108.841 9.37602 109.393 9.88002 109.777 10.504V8.60802H113.881V22H109.777V20.104C109.377 20.728 108.817 21.232 108.097 21.616C107.393 22 106.569 22.192 105.625 22.192C104.537 22.192 103.545 21.912 102.649 21.352C101.753 20.776 101.041 19.968 100.513 18.928C100.001 17.872 99.7446 16.656 99.7446 15.28ZM109.777 15.304C109.777 14.28 109.489 13.472 108.913 12.88C108.353 12.288 107.665 11.992 106.849 11.992C106.033 11.992 105.337 12.288 104.761 12.88C104.201 13.456 103.921 14.256 103.921 15.28C103.921 16.304 104.201 17.12 104.761 17.728C105.337 18.32 106.033 18.616 106.849 18.616C107.665 18.616 108.353 18.32 108.913 17.728C109.489 17.136 109.777 16.328 109.777 15.304Z" fill="#41464B"/>
<path d="M91.6207 8.46399C93.1567 8.46399 94.3887 8.97599 95.3167 9.99999C96.2447 11.008 96.7087 12.4 96.7087 14.176V22H92.6287V14.728C92.6287 13.832 92.3967 13.136 91.9327 12.64C91.4687 12.144 90.8447 11.896 90.0607 11.896C89.2767 11.896 88.6527 12.144 88.1887 12.64C87.7247 13.136 87.4927 13.832 87.4927 14.728V22H83.3887V4.23999H87.4927V10.408C87.9087 9.81599 88.4767 9.34399 89.1967 8.99199C89.9167 8.63999 90.7247 8.46399 91.6207 8.46399Z" fill="#41464B"/>
<path d="M63.4116 13.552C63.4116 11.888 63.7716 10.408 64.4916 9.11202C65.2116 7.80002 66.2116 6.78402 67.4916 6.06402C68.7876 5.32802 70.2516 4.96002 71.8836 4.96002C73.8836 4.96002 75.5956 5.48802 77.0196 6.54402C78.4436 7.60002 79.3956 9.04002 79.8756 10.864H75.3636C75.0276 10.16 74.5476 9.62402 73.9236 9.25602C73.3156 8.88802 72.6196 8.70402 71.8356 8.70402C70.5716 8.70402 69.5476 9.14402 68.7636 10.024C67.9796 10.904 67.5876 12.08 67.5876 13.552C67.5876 15.024 67.9796 16.2 68.7636 17.08C69.5476 17.96 70.5716 18.4 71.8356 18.4C72.6196 18.4 73.3156 18.216 73.9236 17.848C74.5476 17.48 75.0276 16.944 75.3636 16.24H79.8756C79.3956 18.064 78.4436 19.504 77.0196 20.56C75.5956 21.6 73.8836 22.12 71.8836 22.12C70.2516 22.12 68.7876 21.76 67.4916 21.04C66.2116 20.304 65.2116 19.288 64.4916 17.992C63.7716 16.696 63.4116 15.216 63.4116 13.552Z" fill="#41464B"/>
<path d="M60.1333 5.15198V22H56.0293V5.15198H60.1333Z" fill="#41464B"/>
<path d="M47.822 19.024H41.534L40.526 22H36.23L42.326 5.15198H47.078L53.174 22H48.83L47.822 19.024ZM46.766 15.856L44.678 9.68798L42.614 15.856H46.766Z" fill="#41464B"/>
<defs>
<clipPath id="clip0_94_2241">
<rect width="28" height="28" fill="white"/>
</clipPath>
</defs>
</svg>
